# xmcd
#
# Track frame offsets:
#  150
#  10335
#  23975
#  44847
#  67647
#  81267
#  97680
#  111247
#  136392
#  153030
#  175100
#  196750
#  210582
#  227337
#  237634
#  254070
#
# Disc length: 3561 seconds
#
# Revision: 2
# Processed by: cddbd v1.5.1PL2 Copyright (c) Steve Scherf et al.
# Submitted via: Collectorz.com_Music_Collector 6.10
#
DISCID=cb0de710
DTITLE=Various Artist - Blue Highways - The Ultimate American Music Fest 2002
DYEAR=2002
DGENRE=Alternative Country
TTITLE0=Shaver - Love Is So Sweet
TTITLE1=Cleaves, Slaid - Horseshoe Lounge
TTITLE2=Trooper, Greg - Real Like That
TTITLE3=Merritt, Tift - Trouble Over Me
TTITLE4=Dayton, Jesse - Creek Between Heaven And Hell
TTITLE5=Poston, Karen and The Crystal Pistols - Flowered Dress
TTITLE6=Demolition String Band - Garden Of Love
TTITLE7=Kev Russell's Junker - Blackfoot
TTITLE8=Twangbangers, The - Truck Drivin' Man
TTITLE9=Brooklyn Cowboys, The - You Must Be From Nashville
TTITLE10=Hancock, Butch - You Coulda Walked Around The World
TTITLE11=Hillman, Chris and Herb Pedersen - Two Of A Kind
TTITLE12=Harmer, Sarah - Uniform Grey
TTITLE13=Dial, Autumn K. - Garden Of St.Joseph
TTITLE14=Pullus, Penny Jo - Faithless Heart
TTITLE15=Trailerbride - High Seas
EXTD=
EXTT0=
EXTT1=
EXTT2=
EXTT3=
EXTT4=
EXTT5=
EXTT6=
EXTT7=
EXTT8=
EXTT9=
EXTT10=
EXTT11=
EXTT12=
EXTT13=
EXTT14=
EXTT15=
PLAYORDER=
